<svg xmlns="http://www.w3.org/2000/svg" xmlns:xlink="http://www.w3.org/1999/xlink" xml:space="preserve" viewBox="0 0 133.406 171.17"><defs><path id="e" fill="#ba907e" d="M2714.879 860.682a7.66 7.66 45 0 0-7.587 7.733l.249 26.058a7.66 7.66 45 0 0 7.732 7.583 7.66 7.66 45 0 0 7.587-7.732l-.25-26.055a7.66 7.66 45 0 0-7.731-7.587zm-34.757-5.012a7.66 7.66 0 0 0-7.576 7.74l.282 26.059a7.66 7.66 0 0 0 7.741 7.573 7.66 7.66 0 0 0 7.577-7.741l-.282-26.055a7.66 7.66 0 0 0-7.742-7.577z" color="#000" paint-order="stroke fill markers" style="-inkscape-stroke:none"/><path id="f" fill="#fffcf7" d="M2699.684 768.446a14.958 14.431 0 0 0-13.24 7.79 14.958 14.431 0 0 0-4.061-.547 14.958 14.431 0 0 0-13.322 7.932 16.626 16.04 0 0 0-3.117-.287 16.626 16.04 0 0 0-16.626 16.04 16.626 16.04 0 0 0 2.126 7.767 16.626 16.04 0 0 0-7.76 13.56 16.626 16.04 0 0 0 4.535 10.961 16.626 16.04 0 0 0-3.328 9.56 16.626 16.04 0 0 0 6.875 12.943 16.626 16.04 0 0 0 12.044 14.95 16.626 16.04 0 0 0 16.217 12.692 16.626 16.04 0 0 0 9.224-2.717 16.626 16.04 0 0 0 10.895 3.924 16.626 16.04 0 0 0 11.927-4.921 16.626 16.04 0 0 0 10.606 3.714 16.626 16.04 0 0 0 16.612-15.84 16.626 16.04 0 0 0 14.5-15.893 16.626 16.04 0 0 0-1.218-6.018 14.958 14.431 0 0 0 4.721-10.48 14.958 14.431 0 0 0-2.597-8.122 14.958 14.431 0 0 0 4.207-9.984 14.958 14.431 0 0 0-7.002-12.216 14.958 14.431 0 0 0 .564-3.88 14.958 14.431 0 0 0-14.958-14.43 14.958 14.431 0 0 0-1.724.118 14.958 14.431 0 0 0-14.774-12.19 14.958 14.431 0 0 0-8.495 2.587 14.958 14.431 0 0 0-12.83-7.013z"/><path id="g" fill="#e1c078" d="M2656.692 748.903c-1.035 1.193-3.159 3.93-4.196 7.38-.7 2.33-.907 4.947.016 7.666.742 2.185 2.222 4.464 4.853 6.72-1.95-6.713-.108-14.329 5.646-18.987 6.766-5.477 17.183-4.872 22.715 2.121 4.715 5.961 4.145 15.088-2.06 19.847-5.157 3.954-12.998 3.41-16.98-2.015-3.193-4.349-2.678-10.912 1.974-14.109 3.54-2.433 8.848-1.945 11.242 1.953a6.515 6.515 0 0 1 .838 4.581c-.294 1.553-1.226 3.025-2.818 3.798a4.496 4.496 0 0 1-3.172.263c-1.062-.303-2.08-1.137-2.332-2.425-.151-.773.085-1.398.527-1.987.222-.295.54-.598 1.037-.69.498-.092 1.052.145 1.397.509a.873.873 0 0 1-.033 1.236.873.873 0 0 1-1.026.057c-.097.198-.177.603-.19.539.12.61.493.908 1.1 1.082.607.174 1.407.098 1.93-.155 1.064-.516 1.658-1.445 1.868-2.554a4.851 4.851 0 0 0-.611-3.34c-1.818-2.96-5.99-3.34-8.77-1.429-3.773 2.594-4.196 8.038-1.552 11.64 3.364 4.581 10.092 5.046 14.508 1.66 5.387-4.132 5.89-12.153 1.756-17.38-4.897-6.19-14.215-6.729-20.25-1.844-6.994 5.662-7.57 16.276-1.931 23.117 6.426 7.797 18.34 8.408 25.987 2.015 8.6-7.19 9.246-20.404 2.097-28.855-7.953-9.402-22.47-10.084-31.727-2.177a23.456 23.456 0 0 0-1.842 1.763z" paint-order="stroke fill markers"/><path id="h" fill="#58441e" fill-rule="evenodd" d="M2672.663 738.897c-7.132.208-14.194 3.467-18.782 8.964-3.01 3.862-5.177 8.704-4.726 13.692.387 4.53 3.118 8.518 6.532 11.372.672.612 1.47 1.103 2.137 1.696 3.214 6.27 10 10.376 16.994 10.684 7.121.436 14.375-2.87 18.613-8.632 4.867-6.414 5.84-15.404 2.802-22.815-2.637-6.572-8.37-11.782-15.147-13.816a26.007 26.007 0 0 0-8.423-1.145zm1.115 3.857a21.19 21.19 0 0 1 7.261 1.364c4.316 1.58 8.134 4.73 10.382 8.685 2.988 5.075 3.508 11.565 1.384 17.09-1.22 3.212-3.455 6.207-6.308 8.236-2.737 1.97-6.224 3.162-9.532 3.322-1.723.104-3.5-.103-5.076-.454a16.608 16.608 0 0 1-5.69-2.568c-3.15-2.157-5.526-5.595-6.362-9.381-1.067-4.498-.085-9.722 3.035-13.308 2.115-2.53 5.14-4.25 8.339-4.744 4.742-.812 9.981 1.071 12.737 5.105 2.588 3.676 2.817 8.95.41 12.702a9.975 9.975 0 0 1-4.94 4.012c-1.116.42-2.55.657-3.834.597-3.506-.113-6.977-2.49-7.852-5.976-.833-2.949.296-6.571 3.154-7.977 2.228-1.16 5.495-.673 6.737 1.681.754 1.388.554 3.637-1.103 4.25-.754.289.035-.325.057-.68.548-1.54-1.14-2.963-2.607-2.734-1.898.177-3.024 2.415-2.53 4.149.556 2.446 3.426 3.684 5.727 3.085 2.897-.561 4.837-3.513 4.73-6.373.03-3.17-2.123-6.14-5.075-7.233-3.679-1.458-8.161-.263-10.69 2.766-3.206 3.702-3.314 9.523-.568 13.511 2.381 3.558 6.705 5.61 10.96 5.397 4.992-.154 9.74-3.27 11.874-7.786 2.77-5.612 1.615-12.843-2.707-17.358-3.958-4.271-10.24-6.038-15.889-4.808-5.804 1.185-10.831 5.483-12.926 11.022a19.592 19.592 0 0 0-1.213 9.09c-1.958-2.409-3.09-5.592-2.611-8.705.154-1.12.5-2.459.975-3.59 1.66-4.049 4.747-7.468 8.59-9.555a22.174 22.174 0 0 1 11.161-2.834z" color="#000" paint-order="stroke fill markers"/><path id="i" fill="#fffcf7" d="M2705.689 740.027a6.856 6.856 0 0 0-4.624 1.809 6.856 6.856 0 0 0-3.604-1.025 6.856 6.856 0 0 0-6.855 6.856 6.856 6.856 0 0 0 .034.472 6.856 6.856 0 0 0-4.931 6.58 6.856 6.856 0 0 0 6.856 6.855 6.856 6.856 0 0 0 1.67-.22 6.856 6.856 0 0 0 5.774 3.16 6.856 6.856 0 0 0 1.05-.087 6.856 6.856 0 0 0 5.805 3.22 6.856 6.856 0 0 0 2.42-.46 6.856 6.856 0 0 0 4.436 1.635 6.856 6.856 0 0 0 3.871-1.21 6.856 6.856 0 0 0 3.572 1.015 6.856 6.856 0 0 0 6.857-6.856 6.856 6.856 0 0 0-1.267-3.966 6.856 6.856 0 0 0 1.07-3.674 6.856 6.856 0 0 0-6.096-6.812 6.856 6.856 0 0 0-6.635-5.137 6.856 6.856 0 0 0-3.611 1.036 6.856 6.856 0 0 0-5.792-3.19z" paint-order="stroke fill markers"/><path id="j" fill="#e1c078" d="M2735.173 752.268c-1.579.071-5.025.417-8.242 2.041-2.172 1.097-4.21 2.75-5.546 5.291-1.073 2.043-1.706 4.686-1.53 8.147 3.525-6.036 10.315-9.947 17.655-8.984 8.63 1.133 15.367 9.102 14.107 17.929-1.074 7.524-8.083 13.397-15.808 12.176-6.418-1.015-11.424-7.075-10.234-13.697.954-5.311 6.066-9.458 11.588-8.287 4.203.89 7.505 5.074 6.328 9.495a6.516 6.516 0 0 1-2.744 3.763c-1.329.857-3.038 1.195-4.695.572a4.496 4.496 0 0 1-2.375-2.117c-.512-.98-.609-2.292.152-3.362.456-.642 1.072-.901 1.804-.986.366-.043.804-.02 1.214.277.41.297.619.862.593 1.363a.873.873 0 0 1-.92.827.873.873 0 0 1-.747-.705c-.21.066-.559.288-.52.234-.362.508-.32.983-.028 1.543.293.56.898 1.088 1.443 1.292 1.106.416 2.188.207 3.137-.405a4.854 4.854 0 0 0 2-2.744c.894-3.355-1.704-6.641-5.004-7.34-4.479-.95-8.717 2.493-9.507 6.89-1.005 5.595 3.292 10.793 8.79 11.662 6.705 1.06 12.867-4.1 13.808-10.697 1.116-7.815-4.912-14.94-12.61-15.951-8.923-1.171-17.014 5.721-18.09 14.521-1.227 10.03 6.536 19.088 16.438 20.229 11.136 1.282 21.161-7.35 22.364-18.355 1.339-12.241-8.166-23.236-20.273-24.5a23.47 23.47 0 0 0-2.548-.122z" paint-order="stroke fill markers"/><path id="k" fill="#58441e" fill-rule="evenodd" d="M2734.452 749.497c-4.981.362-10.128 2.107-13.528 5.918-3.293 3.57-4.248 8.704-3.797 13.413.046.897.354 1.812-.06 2.662-2.037 6.785-.076 14.507 4.767 19.638 5.064 5.577 13.151 8.222 20.52 6.577 9.225-1.912 16.818-9.91 18.239-19.226 1.114-6.6-.693-13.602-4.83-18.859-4.958-6.497-13.104-10.528-21.311-10.123zm1.394 3.832c6.913.107 13.789 3.9 17.66 9.771 2.146 3.14 3.371 6.94 3.528 10.651.347 6.46-2.797 12.929-8 16.748-3.536 2.646-7.89 4.073-12.321 3.786a17.898 17.898 0 0 1-5.748-1.372c-3.33-1.39-6.358-3.873-8.242-6.974-2.812-4.426-3.453-10.187-1.347-15.001 1.641-3.895 4.923-7.05 8.814-8.557 3.263-1.292 6.997-1.288 10.202.03 4.609 1.799 8.2 6.235 8.52 11.236.355 3.876-1.366 7.856-4.471 10.212-3.086 2.471-7.604 3.195-11.111 1.275-3.388-1.74-5.749-5.663-5.005-9.505.647-3.483 3.98-6.493 7.623-6.12 2.767.274 5.401 2.91 4.912 5.8-.254 1.772-2.177 3.46-3.988 2.711-.444-.227-.097-.351.2-.38 1.557-.295 1.844-2.445.856-3.486-1.26-1.635-3.942-1.094-4.972.521-1.475 1.99-.56 4.916 1.362 6.254 2.282 1.776 5.704 1.405 7.799-.487 2.668-2.279 3.464-6.401 1.824-9.506-1.915-3.957-6.748-6.178-10.998-5.034-5.12 1.214-8.893 6.368-8.59 11.609.182 5.469 4.228 10.471 9.464 11.968 4.623 1.413 9.91.253 13.51-2.977 4.333-3.671 6.443-9.787 5.133-15.334-1.511-7.11-7.945-12.792-15.167-13.494-5.617-.633-11.432 1.524-15.329 5.61-.255.168-.76 1.087-.881.502.6-3.578 2.876-6.907 6.203-8.459 2.597-1.331 5.605-1.958 8.56-1.998z" color="#000" paint-order="stroke markers fill"/><path id="l" fill="#ba907e" d="M2078.68-625.33a7.68 7.68 0 0 0-7.646 7.712l.133 30.172a7.68 7.68 0 0 0 7.712 7.646 7.68 7.68 0 0 0 7.646-7.713l-.133-30.172a7.68 7.68 0 0 0-7.713-7.645z" color="#000" paint-order="stroke fill markers" style="-inkscape-stroke:none"/></defs><defs><linearGradient id="b"><stop offset="0" stop-color="#493982"/><stop offset="1" stop-color="#8b7ac6"/></linearGradient><linearGradient id="a"><stop offset="0" stop-color="#493982"/><stop offset="1" stop-color="#8b7ac6"/></linearGradient><linearGradient xlink:href="#a" id="c" x1="2787.253" x2="2958.934" y1="530.119" y2="358.438" gradientTransform="translate(-338.906 328.982)" gradientUnits="userSpaceOnUse"/><linearGradient xlink:href="#b" id="d" x1="2787.253" x2="2958.934" y1="530.119" y2="358.438" gradientTransform="translate(-338.906 611.812)" gradientUnits="userSpaceOnUse"/></defs><g transform="translate(-2049.54 -1140.337)"><rect width="230" height="230" x="2420.976" y="653.638" fill="url(#c)" ry="0"/><rect width="230" height="230" x="2420.976" y="936.468" fill="url(#d)" ry="115"/><path d="M2569.373 1135.211c-20.02 11.56-52.5 11.56-72.53 0-20.02-11.56-20.02-30.31 0-41.87 9.62-5.56 22.67-8.68 36.27-8.68 13.6 0 26.65 3.12 36.26 8.68 9.62 5.55 15.03 13.08 15.03 20.93 0 7.86-5.41 15.39-15.03 20.94z"/><path stroke="#010100" stroke-linecap="round" stroke-width="8" d="M2507.404 963.08a27.115 27.115 0 0 0-1.067.006c-7.132.208-14.195 3.468-18.783 8.964-3.01 3.862-5.176 8.704-4.725 13.693.288 3.377 1.88 6.452 4.086 8.982a12.461 12.461 0 0 0-1.043 4.956 12.461 12.461 0 0 0 1.263 5.428 36.419 48.369 52.382 0 0-5.474 29.088 16.626 16.04 0 0 0-4.303 10.693 16.626 16.04 0 0 0 4.534 10.962 16.626 16.04 0 0 0-3.327 9.56 16.626 16.04 0 0 0 6.875 12.943 16.626 16.04 0 0 0 12.043 14.949 16.626 16.04 0 0 0 6.836 9.74l-.087 7.45a7.66 7.66 0 0 0 7.57 7.747 7.66 7.66 0 0 0 7.748-7.57l.068-5.777a16.626 16.04 0 0 0 3.307-1.615 16.626 16.04 0 0 0 10.894 3.925 16.626 16.04 0 0 0 7.272-1.774l-.153 13.07a7.66 7.66 0 0 0 7.57 7.745 7.66 7.66 0 0 0 7.749-7.57l.147-12.686a16.626 16.04 0 0 0 16.56-15.832 16.626 16.04 0 0 0 14.5-15.894 16.626 16.04 0 0 0-1.217-6.018 14.958 14.431 0 0 0 4.72-10.48 14.958 14.431 0 0 0-2.597-8.121 14.958 14.431 0 0 0 4.208-9.985 14.958 14.431 0 0 0-7.003-12.215 14.958 14.431 0 0 0 .565-3.88 14.958 14.431 0 0 0-1.234-5.718c4.894-3.632 8.437-9.12 9.36-15.177 1.115-6.6-.692-13.603-4.83-18.86-4.957-6.497-13.103-10.527-21.31-10.123-2.484.18-5.008.705-7.337 1.658a6.856 6.856 0 0 0-5.388-3.836 6.856 6.856 0 0 0-6.635-5.136 6.856 6.856 0 0 0-3.611 1.035 6.856 6.856 0 0 0-5.792-3.19 6.856 6.856 0 0 0-4.624 1.809 6.856 6.856 0 0 0-3.604-1.025 6.856 6.856 0 0 0-6.592 5.069c-2.736-2.687-6.103-4.734-9.784-5.84a25.875 25.875 0 0 0-7.355-1.151z" color="#000" paint-order="stroke fill markers"/><g transform="translate(-166.327 224.19)"><use xlink:href="#e" color="#000" paint-order="stroke fill markers" style="-inkscape-stroke:none"/><use xlink:href="#f"/><use xlink:href="#g" paint-order="stroke fill markers"/><use xlink:href="#h" fill-rule="evenodd" color="#000" paint-order="stroke fill markers"/><ellipse cx="1648.555" cy="2270.041" fill="#ffc4b9" rx="48.369" ry="36.419" transform="rotate(-37.618)"/><circle cx="2664.66" cy="775.492" r="12.461" fill="#fff"/><circle cx="2664.397" cy="774.675" r="11.09"/><circle cx="2706.625" cy="781.113" r="12.461" fill="#fff"/><circle cx="2706.969" cy="780.492" r="11.286"/><use xlink:href="#i" paint-order="stroke fill markers"/><use xlink:href="#j" paint-order="stroke fill markers"/><use xlink:href="#k" fill-rule="evenodd" color="#000" paint-order="stroke markers fill"/><ellipse cx="2710.097" cy="777.441" fill="#fffcf7" paint-order="stroke fill markers" rx="3.624" ry="3.526"/><ellipse cx="2660.343" cy="771.663" fill="#fffcf7" paint-order="stroke fill markers" rx="2.449" ry="2.742"/><use xlink:href="#l" color="#000" paint-order="stroke fill markers" style="-inkscape-stroke:none" transform="translate(651.115 1442.323)"/></g><g transform="translate(-1485.596 -187.752) scale(1.5869)"><rect width="4.851" height="6.063" x="2532.814" y="782.048" fill="#373737" ry="2.425"/><rect width="11.912" height="18.47" x="2529.284" y="785.166" fill="#493982" ry="3.047"/><g transform="translate(0 -.288)"><text xml:space="preserve" x="2531.956" y="799.725" fill="#ebedff" stroke-width=".712" font-family="Sans" font-size="8.541" font-weight="400" style="-inkscape-font-specification:Sans"><tspan x="2531.956" y="799.725" font-style="italic" font-weight="700" style="-inkscape-font-specification:'Sans Bold Italic'">U</tspan></text><rect width="4.887" height="1.293" x="2532.796" y="791.553" fill="#59a4cc" ry=".213"/><rect width="4.887" height="1.293" x="2532.796" y="789.569" fill="#59a4cc" ry=".213"/></g></g><path d="M2569.373 852.381c-20.02 11.56-52.5 11.56-72.53 0-20.02-11.56-20.02-30.31 0-41.87 9.62-5.56 22.67-8.68 36.27-8.68 13.6 0 26.65 3.12 36.26 8.68 9.62 5.55 15.03 13.08 15.03 20.93 0 7.86-5.41 15.39-15.03 20.94z"/><path stroke="#010100" stroke-linecap="round" stroke-width="8" d="M2507.404 680.25a27.115 27.115 0 0 0-1.067.007c-7.132.208-14.195 3.467-18.783 8.963-3.01 3.863-5.176 8.705-4.725 13.693.288 3.377 1.88 6.452 4.086 8.982a12.461 12.461 0 0 0-1.043 4.956 12.461 12.461 0 0 0 1.263 5.428 36.419 48.369 52.382 0 0-5.474 29.088 16.626 16.04 0 0 0-4.303 10.693 16.626 16.04 0 0 0 4.534 10.962 16.626 16.04 0 0 0-3.327 9.56 16.626 16.04 0 0 0 6.875 12.943 16.626 16.04 0 0 0 12.043 14.949 16.626 16.04 0 0 0 6.836 9.74l-.087 7.451a7.66 7.66 0 0 0 7.57 7.746 7.66 7.66 0 0 0 7.748-7.57l.068-5.777a16.626 16.04 0 0 0 3.307-1.614 16.626 16.04 0 0 0 10.894 3.924 16.626 16.04 0 0 0 7.272-1.774l-.153 13.07a7.66 7.66 0 0 0 7.57 7.746 7.66 7.66 0 0 0 7.749-7.57l.147-12.687a16.626 16.04 0 0 0 16.56-15.832 16.626 16.04 0 0 0 14.5-15.894 16.626 16.04 0 0 0-1.217-6.017 14.958 14.431 0 0 0 4.72-10.48 14.958 14.431 0 0 0-2.597-8.122 14.958 14.431 0 0 0 4.208-9.985 14.958 14.431 0 0 0-7.003-12.215 14.958 14.431 0 0 0 .565-3.88 14.958 14.431 0 0 0-1.234-5.717c4.894-3.633 8.437-9.12 9.36-15.178 1.115-6.6-.692-13.602-4.83-18.86-4.957-6.497-13.103-10.527-21.31-10.123-2.484.181-5.008.705-7.337 1.658a6.856 6.856 0 0 0-5.388-3.836 6.856 6.856 0 0 0-6.635-5.136 6.856 6.856 0 0 0-3.611 1.036 6.856 6.856 0 0 0-5.792-3.19 6.856 6.856 0 0 0-4.624 1.808 6.856 6.856 0 0 0-3.604-1.025 6.856 6.856 0 0 0-6.592 5.07c-2.736-2.688-6.103-4.735-9.784-5.84a25.875 25.875 0 0 0-7.355-1.152z" color="#000" paint-order="stroke fill markers"/><g transform="translate(-166.327 -58.64)"><use xlink:href="#e" color="#000" paint-order="stroke fill markers" style="-inkscape-stroke:none"/><use xlink:href="#f"/><use xlink:href="#g" paint-order="stroke fill markers"/><use xlink:href="#h" fill-rule="evenodd" color="#000" paint-order="stroke fill markers"/><ellipse cx="1648.555" cy="2270.041" fill="#ffc4b9" rx="48.369" ry="36.419" transform="rotate(-37.618)"/><circle cx="2664.66" cy="775.492" r="12.461" fill="#fff"/><circle cx="2664.397" cy="774.675" r="11.09"/><circle cx="2706.625" cy="781.113" r="12.461" fill="#fff"/><circle cx="2706.969" cy="780.492" r="11.286"/><use xlink:href="#i" paint-order="stroke fill markers"/><use xlink:href="#j" paint-order="stroke fill markers"/><use xlink:href="#k" fill-rule="evenodd" color="#000" paint-order="stroke markers fill"/><ellipse cx="2710.097" cy="777.441" fill="#fffcf7" paint-order="stroke fill markers" rx="3.624" ry="3.526"/><ellipse cx="2660.343" cy="771.663" fill="#fffcf7" paint-order="stroke fill markers" rx="2.449" ry="2.742"/><use xlink:href="#l" color="#000" paint-order="stroke fill markers" style="-inkscape-stroke:none" transform="translate(651.115 1442.323)"/></g><g transform="translate(-1485.596 -470.581) scale(1.5869)"><rect width="4.851" height="6.063" x="2532.814" y="782.048" fill="#373737" ry="2.425"/><rect width="11.912" height="18.47" x="2529.284" y="785.166" fill="#493982" ry="3.047"/><g transform="translate(0 -.288)"><text xml:space="preserve" x="2531.956" y="799.725" fill="#ebedff" stroke-width=".712" font-family="Sans" font-size="8.541" font-weight="400" style="-inkscape-font-specification:Sans"><tspan x="2531.956" y="799.725" font-style="italic" font-weight="700" style="-inkscape-font-specification:'Sans Bold Italic'">U</tspan></text><rect width="4.887" height="1.293" x="2532.796" y="791.553" fill="#59a4cc" ry=".213"/><rect width="4.887" height="1.293" x="2532.796" y="789.569" fill="#59a4cc" ry=".213"/></g></g><path stroke="#000" stroke-width="8" d="M2091.755 1144.337c-.355 0-.712 0-1.067.01-7.132.208-14.194 3.467-18.782 8.963-3.01 3.863-5.177 8.704-4.725 13.693.288 3.376 1.881 6.45 4.087 8.98a12.462 12.462 0 0 0-1.045 4.958 12.5 12.5 0 0 0 1.31 5.514c-5.538 9.715-7.493 20.065-5.496 29.102-2.737 2.902-4.276 6.67-4.327 10.593.01 3.496 1.211 6.871 3.38 9.633l-10.635 19.574a7.68 7.68 0 0 0 3.081 10.414 7.68 7.68 0 0 0 10.414-3.081l1.722-3.17c.042.03.077.066.12.096.213 6.98 5.083 13.026 12.043 14.948 1.13 4.715 4.406 8.685 8.915 10.805l.103 9.55a7.66 7.66 0 0 0 15.318-.168l-.104-9.656c.41-.17.814-.354 1.21-.555 3.023 2.53 6.891 3.924 10.894 3.924a17.11 17.11 0 0 0 7.269-1.773l.126 13.232a7.66 7.66 0 0 0 15.319-.149l-.12-12.527c9.069-.039 16.432-7.081 16.55-15.83 8.286-1.03 14.492-7.833 14.5-15.893 0-2.063-.414-4.106-1.217-6.018 3.001-2.718 4.71-6.509 4.721-10.48 0-2.897-.906-5.728-2.598-8.122 2.687-2.679 4.195-6.257 4.208-9.984 0-4.963-2.647-9.576-7.002-12.216.37-1.262.56-2.568.564-3.88 0-1.976-.427-3.93-1.246-5.741 4.894-3.632 8.45-9.097 9.373-15.154 1.115-6.6-.693-13.602-4.83-18.86-4.648-6.09-12.098-10.014-19.773-10.147-.512-.01-1.025 0-1.538.024-2.484.18-5.008.706-7.337 1.658a6.856 6.856 0 0 0-5.388-3.835 6.856 6.856 0 0 0-6.635-5.137 6.834 6.834 0 0 0-3.611 1.036 6.856 6.856 0 0 0-5.792-3.191 6.84 6.84 0 0 0-4.624 1.809 6.855 6.855 0 0 0-3.603-1.025 6.856 6.856 0 0 0-6.602 5.095c-2.737-2.69-6.09-4.759-9.774-5.865a25.885 25.885 0 0 0-7.356-1.152z" color="#000" paint-order="fill markers stroke"/><path fill="#ba907e" d="M2079.273 1225.764a7.68 7.68 0 0 0-10.414 3.08l-14.404 26.513a7.68 7.68 0 0 0 3.081 10.413 7.68 7.68 0 0 0 10.414-3.08l14.404-26.512a7.68 7.68 0 0 0-3.08-10.414z" color="#000" paint-order="stroke fill markers" style="-inkscape-stroke:none"/><g transform="translate(-581.977 405.247)"><use xlink:href="#e" color="#000" paint-order="stroke fill markers" style="-inkscape-stroke:none"/><use xlink:href="#f"/><use xlink:href="#g" paint-order="stroke fill markers"/><use xlink:href="#h" fill-rule="evenodd" color="#000" paint-order="stroke fill markers"/><ellipse cx="1648.555" cy="2270.041" fill="#ffc4b9" rx="48.369" ry="36.419" transform="rotate(-37.618)"/><circle cx="2664.66" cy="775.492" r="12.461" fill="#fff"/><circle cx="2664.397" cy="774.675" r="11.09"/><circle cx="2706.625" cy="781.113" r="12.461" fill="#fff"/><circle cx="2706.969" cy="780.492" r="11.286"/><use xlink:href="#i" paint-order="stroke fill markers"/><use xlink:href="#j" paint-order="stroke fill markers"/><use xlink:href="#k" fill-rule="evenodd" color="#000" paint-order="stroke markers fill"/><ellipse cx="2710.097" cy="777.441" fill="#fffcf7" paint-order="stroke fill markers" rx="3.624" ry="3.526"/><ellipse cx="2660.343" cy="771.663" fill="#fffcf7" paint-order="stroke fill markers" rx="2.449" ry="2.742"/></g><g transform="translate(-1901.246 -6.694) scale(1.5869)"><rect width="4.851" height="6.063" x="2532.814" y="782.048" fill="#373737" ry="2.425"/><rect width="11.912" height="18.47" x="2529.284" y="785.166" fill="#493982" ry="3.047"/><g transform="translate(0 -.288)"><text xml:space="preserve" x="2531.956" y="799.725" fill="#ebedff" stroke-width=".712" font-family="Sans" font-size="8.541" font-weight="400" style="-inkscape-font-specification:Sans"><tspan x="2531.956" y="799.725" font-style="italic" font-weight="700" style="-inkscape-font-specification:'Sans Bold Italic'">U</tspan></text><rect width="4.887" height="1.293" x="2532.796" y="791.553" fill="#59a4cc" ry=".213"/><rect width="4.887" height="1.293" x="2532.796" y="789.569" fill="#59a4cc" ry=".213"/></g></g><path fill="#a15d38" d="m2085.36 1278.462-9.585-44.99c.575-.744 1.694-2.055 3.533-.635l26.725 20.643a1.7 1.7 0 0 1 .306 2.385l-17.51 22.668c-.573.743-1.926 1.12-3.47-.071"/><path fill="#ba793e" d="m2085.396 1278.49-26.53-20.492a1.62 1.62 0 0 1-.292-2.275l17.16-22.216a1.62 1.62 0 0 1 2.275-.292l26.53 20.492c.71.548.84 1.565.292 2.275l-17.16 22.216a1.62 1.62 0 0 1-2.275.292"/><path fill="#6f5ab7" d="m2086.204 1274.686-23.929-18.483a.837.837 0 0 1-.15-1.173l14.067-18.212a.837.837 0 0 1 1.173-.15l23.929 18.482a.837.837 0 0 1 .15 1.173l-14.067 18.212a.835.835 0 0 1-1.173.15"/><path fill="#212121" d="m2076.001 1240.408-3.497-2.701-3.053 3.952 5.4.239z" opacity=".35"/><path fill="#2f7889" d="m2070.686 1240.329-.717.9c-.467.604-1.092.303-1.222.238-.171-.083-.527-.294-.67-.378-1.387-.827-2.504-.995-3.91.451-1.217 1.254-.568 3.33.778 4.37l.011.01c.608.469.763 1.32.294 1.928 0 0-1.674 1.541-1.201 3.933.088.447.987 1.598 1.298 1.843.866.685 1.568.015 1.774-.246.924-1.173 8.326-10.825 9.038-11.747a.869.869 0 0 0-.156-1.218l-.512-.395c-1.453-1.122-3.684-1.139-4.804.311m-3.007 4.051a1.197 1.197 0 1 1-1.895-1.463 1.197 1.197 0 0 1 1.895 1.463"/><path fill="#82aec0" d="m2070.145 1240.737-.423.548c-.468.605-1.13.482-1.353.431-.326-.075-.839-.422-.984-.502a2.892 2.892 0 0 0-3.44.53 2.886 2.886 0 0 0 .307 4.29l.012.01c.608.47.763 1.32.294 1.928l-.415.537a3.319 3.319 0 0 0 .597 4.655l.512.395a.869.869 0 0 0 1.218-.156l8.997-11.648a.869.869 0 0 0-.157-1.217l-.511-.396a3.316 3.316 0 0 0-4.653.595m-3.156 3.77a1.197 1.197 0 1 1-1.894-1.463 1.197 1.197 0 0 1 1.894 1.463"/><path fill="#b9e4ea" d="m2072.465 1241.27-7.442 9.634c-.284.368-.565.305-.732-.127-.241-.629-.03-1.522.407-2.087.947-1.227 4.231-5.76 5.435-7.317.587-.76 1.147-.96 1.827-.963.486 0 .8.478.505.86"/><path fill="none" stroke="#b9e4ea" stroke-linecap="round" stroke-miterlimit="10" stroke-width=".757" d="M2064.112 1244.743c-.522-.656-.237-1.406-.237-1.406"/><path fill="#ba907e" d="M2143.435 1252.539a7.68 7.68 0 0 0-9.21-5.756l-29.399 6.784a7.68 7.68 0 0 0-5.756 9.209 7.68 7.68 0 0 0 9.209 5.756l29.4-6.784a7.68 7.68 0 0 0 5.756-9.209z" color="#000" paint-order="stroke fill markers" style="-inkscape-stroke:none"/><g transform="rotate(-49.98 3273.416 5031.239) scale(2.12936)"><text xml:space="preserve" x="2531.956" y="799.725" fill="#ebedff" stroke-width=".712" font-family="Sans" font-size="8.541" font-weight="400" style="-inkscape-font-specification:Sans"><tspan x="2531.956" y="799.725" font-style="italic" font-weight="700" style="-inkscape-font-specification:'Sans Bold Italic'">U</tspan></text><rect width="4.887" height="1.293" x="2532.796" y="791.553" fill="#59a4cc" ry=".213"/><rect width="4.887" height="1.293" x="2532.796" y="789.569" fill="#59a4cc" ry=".213"/></g></g></svg>